HIERARCHY
ROOT Hips
{
	OFFSET 0.000000 1.471914 24.280096
	CHANNELS 6 Xposition Yposition Zposition Xrotation Yrotation Zrotation
	JOINT Spine
	{
		OFFSET 0.000000 0.900110 1.860670
		CHANNELS 6 Xposition Yposition Zposition Xrotation Yrotation Zrotation
		JOINT Spine1
		{
			OFFSET 0.000000 0.400320 2.270309
			CHANNELS 6 Xposition Yposition Zposition Xrotation Yrotation Zrotation
			JOINT Spine2
			{
				OFFSET 0.000000 0.200920 2.296560
				CHANNELS 6 Xposition Yposition Zposition Xrotation Yrotation Zrotation
				JOINT Spine3
				{
					OFFSET 0.000000 0.000000 2.305330
					CHANNELS 6 Xposition Yposition Zposition Xrotation Yrotation Zrotation
					JOINT Neck
					{
						OFFSET 0.000000 -0.864490 6.051487
						CHANNELS 6 Xposition Yposition Zposition Xrotation Yrotation Zrotation
						JOINT Head
						{
							OFFSET 0.000000 -0.550429 3.121674
							CHANNELS 6 Xposition Yposition Zposition Xrotation Yrotation Zrotation
							End Site
							{
								OFFSET 0.000000 0.000000 3.731750
							}
						}
					}
					JOINT RightShoulder
					{
						OFFSET -0.788280 -1.313800 4.256718
						CHANNELS 6 Xposition Yposition Zposition Xrotation Yrotation Zrotation
						JOINT RightArm
						{
							OFFSET -3.915130 0.000000 0.000000
							CHANNELS 6 Xposition Yposition Zposition Xrotation Yrotation Zrotation
							JOINT RightForeArm
							{
								OFFSET -6.914910 0.000000 0.000000
								CHANNELS 6 Xposition Yposition Zposition Xrotation Yrotation Zrotation
								JOINT RightHand
								{
									OFFSET -6.096219 0.000000 0.000000
									CHANNELS 6 Xposition Yposition Zposition Xrotation Yrotation Zrotation
									JOINT RightHandEnd
									{
										OFFSET -1.749950 0.000000 0.000000
										CHANNELS 6 Xposition Yposition Zposition Xrotation Yrotation Zrotation
										End Site
										{
											OFFSET -1.749950 0.000000 0.000000
										}
									}
									JOINT RightHandThumb1
									{
										OFFSET -0.699980 -1.166630 -0.466648
										CHANNELS 6 Xposition Yposition Zposition Xrotation Yrotation Zrotation
										End Site
										{
											OFFSET -1.690319 -0.452920 0.000000
										}
									}
								}
							}
						}
					}
					JOINT LeftShoulder
					{
						OFFSET 0.788280 -1.313800 4.256718
						CHANNELS 6 Xposition Yposition Zposition Xrotation Yrotation Zrotation
						JOINT LeftArm
						{
							OFFSET 3.915130 0.000000 0.000000
							CHANNELS 6 Xposition Yposition Zposition Xrotation Yrotation Zrotation
							JOINT LeftForeArm
							{
								OFFSET 6.914910 0.000000 0.000000
								CHANNELS 6 Xposition Yposition Zposition Xrotation Yrotation Zrotation
								JOINT LeftHand
								{
									OFFSET 6.096219 0.000000 0.000000
									CHANNELS 6 Xposition Yposition Zposition Xrotation Yrotation Zrotation
									JOINT LeftHandEnd
									{
										OFFSET 1.749950 0.000000 0.000000
										CHANNELS 6 Xposition Yposition Zposition Xrotation Yrotation Zrotation
										End Site
										{
											OFFSET 1.749950 0.000000 0.000000
										}
									}
									JOINT LeftHandThumb1
									{
										OFFSET 0.699980 -1.166630 -0.466648
										CHANNELS 6 Xposition Yposition Zposition Xrotation Yrotation Zrotation
										End Site
										{
											OFFSET 1.690319 -0.452920 0.000000
										}
									}
								}
							}
						}
					}
				}
			}
		}
	}
	JOINT RightUpLeg
	{
		OFFSET -2.338570 -0.252550 -0.551512
		CHANNELS 6 Xposition Yposition Zposition Xrotation Yrotation Zrotation
		JOINT RightLeg
		{
			OFFSET 0.000000 0.000000 -10.744959
			CHANNELS 6 Xposition Yposition Zposition Xrotation Yrotation Zrotation
			JOINT RightFoot
			{
				OFFSET 0.000000 -0.000001 -10.930849
				CHANNELS 6 Xposition Yposition Zposition Xrotation Yrotation Zrotation
				JOINT RightToeBase
				{
					OFFSET 0.000000 -4.087269 -1.487650
					CHANNELS 6 Xposition Yposition Zposition Xrotation Yrotation Zrotation
					End Site
					{
						OFFSET 0.000000 -1.891870 0.000000
					}
				}
			}
		}
	}
	JOINT LeftUpLeg
	{
		OFFSET 2.338570 -0.252550 -0.551512
		CHANNELS 6 Xposition Yposition Zposition Xrotation Yrotation Zrotation
		JOINT LeftLeg
		{
			OFFSET 0.000000 0.000000 -10.744959
			CHANNELS 6 Xposition Yposition Zposition Xrotation Yrotation Zrotation
			JOINT LeftFoot
			{
				OFFSET 0.000000 -0.000001 -10.930849
				CHANNELS 6 Xposition Yposition Zposition Xrotation Yrotation Zrotation
				JOINT LeftToeBase
				{
					OFFSET 0.000000 -4.087269 -1.487650
					CHANNELS 6 Xposition Yposition Zposition Xrotation Yrotation Zrotation
					End Site
					{
						OFFSET 0.000000 -1.891870 0.000000
					}
				}
			}
		}
	}
}
MOTION
Frames: 5
Frame Time: 0.041667
-0.000027 26.531996 40.049500 -18.078865 -1.207913 -3.214245 -0.000014 0.900096 1.860669 31.745200 -1.419888 -1.853144 0.000014 0.400273 2.270334 -0.000000 -0.000001 0.000009 0.000019 0.200896 2.296547 -0.000000 0.000000 0.000001 0.000025 0.000017 2.305341 -0.000038 0.000002 0.169965 -0.000017 -0.864463 6.051446 -0.026107 0.484169 175.468079 0.000009 -0.550431 3.121704 -0.000009 -0.000000 -0.000005 -0.788274 -1.313723 4.256828 -121.573911 53.313540 -62.347169 -3.915116 -0.000027 -0.000019 0.000000 -0.000000 -0.000000 -6.914908 -0.000018 -0.000008 0.000001 -0.000005 -23.224344 -6.096191 0.000005 0.000021 -0.000157 -0.000166 -0.000133 -1.749894 -0.000030 0.000049 -0.000001 -0.000002 -0.000002 -0.699970 -1.166617 -0.466670 -0.000005 0.000000 0.000005 0.788263 -1.313760 4.256773 -136.630763 -60.949685 43.885502 3.915172 0.000011 -0.000042 0.000008 -0.000003 0.000012 6.914951 -0.000049 -0.000008 0.000002 -0.000000 23.562583 6.096242 0.000093 -0.000030 -0.000103 0.000162 0.000063 1.749993 0.000010 0.000029 -0.000004 -0.000002 -0.000001 0.699955 -1.166618 -0.466631 0.000008 -0.000000 -0.000019 -2.338569 -0.252539 -0.551483 26.926906 -1.870951 -1.593657 0.000011 -0.000031 -10.744960 5.900216 3.296506 -0.512708 -0.000015 0.000092 -10.930829 -0.000024 0.000001 -0.000000 0.000013 -4.087247 -1.487645 -0.000001 0.000002 -0.000003 2.338572 -0.252539 -0.551477 26.824798 -0.107945 -1.589787 0.000002 -0.000029 -10.744908 4.905537 0.499093 -0.278364 -0.000010 0.000006 -10.930864 -0.000012 -0.000001 -0.000002 -0.000013 -4.087216 -1.487651 0.000000 0.000001 -0.000002 
-0.000027 26.531994 40.049492 -17.923116 -1.102615 -3.590382 -0.000015 0.900095 1.860672 31.623830 -1.665654 -1.774742 0.000014 0.400277 2.270336 0.000000 -0.000002 0.000008 0.000019 0.200887 2.296556 -0.000000 -0.000000 0.000001 0.000025 0.000015 2.305341 -0.000037 0.000001 0.196426 -0.000017 -0.864469 6.051445 -0.042866 0.870089 176.021666 0.000010 -0.550427 3.121696 -0.000009 -0.000001 -0.000005 -0.788275 -1.313723 4.256833 -122.239814 53.149844 -61.420292 -3.915120 -0.000029 -0.000027 -0.000000 -0.000001 0.000000 -6.914909 -0.000020 -0.000005 0.000001 -0.000008 -23.617648 -6.096191 0.000002 0.000022 -0.000161 -0.000168 -0.000131 -1.749890 -0.000029 0.000049 -0.000004 -0.000004 -0.000000 -0.699966 -1.166618 -0.466663 -0.000007 -0.000006 0.000004 0.788259 -1.313763 4.256775 -132.226124 -59.621514 47.792907 3.915170 0.000020 -0.000045 0.000005 0.000001 0.000011 6.914946 -0.000053 -0.000004 0.000003 0.000005 23.322241 6.096234 0.000089 -0.000032 -0.000105 0.000164 0.000067 1.749990 0.000007 0.000032 0.000000 -0.000006 0.000001 0.699956 -1.166619 -0.466634 0.000004 -0.000005 -0.000019 -2.338570 -0.252539 -0.551481 26.850018 -1.686233 -1.526549 0.000012 -0.000034 -10.744963 5.882648 3.199315 -0.479942 -0.000014 0.000095 -10.930826 -0.000020 0.000001 -0.000001 0.000013 -4.087243 -1.487644 0.000002 0.000002 -0.000003 2.338570 -0.252539 -0.551483 26.539042 0.004619 -1.511987 0.000002 -0.000031 -10.744905 4.945411 0.354517 -0.260958 -0.000010 0.000008 -10.930863 -0.000015 -0.000001 -0.000002 -0.000013 -4.087221 -1.487653 0.000003 0.000001 -0.000002 
-0.000028 26.531988 40.049496 -17.799306 -1.137864 -3.852876 -0.000014 0.900092 1.860675 31.434658 -1.547577 -1.720722 0.000014 0.400273 2.270334 -0.000001 -0.000002 0.000009 0.000019 0.200901 2.296551 0.000001 -0.000000 0.000001 0.000025 0.000020 2.305337 -0.000035 0.000001 0.326145 -0.000017 -0.864468 6.051447 0.104227 0.895457 175.939621 0.000009 -0.550426 3.121700 -0.000008 -0.000001 -0.000005 -0.788274 -1.313727 4.256831 -123.113053 54.179731 -60.524171 -3.915116 -0.000023 -0.000019 -0.000004 -0.000001 0.000000 -6.914909 -0.000018 -0.000001 0.000003 -0.000005 -23.291548 -6.096185 0.000010 0.000022 -0.000165 -0.000168 -0.000132 -1.749892 -0.000036 0.000046 -0.000002 -0.000002 -0.000001 -0.699973 -1.166626 -0.466666 -0.000007 -0.000004 0.000003 0.788261 -1.313764 4.256770 -128.759420 -58.502701 50.518237 3.915173 0.000011 -0.000038 0.000014 0.000002 0.000008 6.914955 -0.000052 -0.000004 0.000008 0.000004 23.516847 6.096242 0.000091 -0.000034 -0.000102 0.000159 0.000067 1.749989 0.000006 0.000029 -0.000002 -0.000008 0.000001 0.699949 -1.166620 -0.466627 0.000004 -0.000001 -0.000019 -2.338570 -0.252541 -0.551479 26.819557 -1.519038 -1.486422 0.000012 -0.000034 -10.744966 5.838889 3.103022 -0.451864 -0.000014 0.000095 -10.930827 -0.000026 0.000001 -0.000001 0.000013 -4.087244 -1.487645 0.000004 0.000002 -0.000003 2.338571 -0.252543 -0.551473 26.050620 0.215385 -1.448608 0.000002 -0.000026 -10.744908 5.481413 0.309748 -0.262971 -0.000010 0.000008 -10.930862 -0.000012 -0.000000 -0.000002 -0.000013 -4.087216 -1.487650 -0.000002 0.000001 -0.000002 
-0.000028 26.531994 40.049496 -17.536021 -0.966257 -3.895411 -0.000014 0.900092 1.860682 31.297347 -1.805083 -1.587381 0.000014 0.400274 2.270321 -0.000001 -0.000001 0.000009 0.000019 0.200898 2.296558 -0.000000 -0.000000 0.000000 0.000025 0.000019 2.305341 -0.000038 0.000002 0.511504 -0.000017 -0.864461 6.051437 0.068259 0.694322 175.637140 0.000009 -0.550426 3.121692 -0.000010 -0.000001 -0.000006 -0.788270 -1.313717 4.256824 -123.754941 53.833164 -59.442986 -3.915124 -0.000027 -0.000023 -0.000001 -0.000001 0.000000 -6.914910 -0.000019 -0.000005 0.000003 -0.000007 -23.871533 -6.096192 0.000004 0.000021 -0.000166 -0.000166 -0.000131 -1.749887 -0.000033 0.000050 -0.000002 -0.000003 0.000000 -0.699963 -1.166621 -0.466670 -0.000007 -0.000004 0.000005 0.788260 -1.313753 4.256766 -126.279474 -57.830795 52.662565 3.915174 0.000016 -0.000045 0.000006 -0.000003 0.000012 6.914946 -0.000051 -0.000001 0.000003 0.000004 23.916452 6.096234 0.000096 -0.000027 -0.000110 0.000159 0.000068 1.749987 0.000007 0.000034 -0.000003 -0.000006 0.000000 0.699950 -1.166618 -0.466634 0.000004 0.000001 -0.000020 -2.338570 -0.252542 -0.551471 26.336747 -1.945035 -1.353745 0.000012 -0.000034 -10.744957 6.241783 3.976672 -0.506691 -0.000015 0.000093 -10.930827 -0.000022 0.000001 -0.000001 0.000013 -4.087252 -1.487646 0.000003 0.000002 -0.000003 2.338571 -0.252542 -0.551475 25.472738 0.081949 -1.313898 0.000002 -0.000030 -10.744910 5.555363 0.247467 -0.259557 -0.000010 -0.000000 -10.930864 -0.000012 -0.000001 -0.000003 -0.000014 -4.087214 -1.487651 0.000001 0.000001 -0.000002 
-0.000029 26.532003 40.049500 -17.331311 -0.692383 -4.516489 -0.000014 0.900094 1.860669 31.079987 -1.806551 -1.529543 0.000014 0.400272 2.270334 0.000000 -0.000001 0.000010 0.000019 0.200892 2.296558 -0.000001 -0.000000 0.000001 0.000025 0.000017 2.305341 -0.000038 0.000002 0.593835 -0.000017 -0.864472 6.051433 -0.228108 0.396998 175.574507 0.000009 -0.550422 3.121696 -0.000008 -0.000000 -0.000005 -0.788274 -1.313725 4.256823 -124.728202 53.942119 -58.212125 -3.915121 -0.000026 -0.000023 -0.000002 -0.000002 0.000001 -6.914912 -0.000020 -0.000001 0.000003 -0.000009 -24.406708 -6.096191 0.000003 0.000021 -0.000165 -0.000171 -0.000128 -1.749893 -0.000035 0.000053 -0.000003 -0.000003 -0.000001 -0.699976 -1.166623 -0.466664 -0.000008 -0.000006 0.000006 0.788258 -1.313765 4.256766 -124.842566 -58.070617 53.632367 3.915174 0.000014 -0.000038 0.000012 -0.000001 0.000011 6.914941 -0.000056 -0.000001 0.000005 0.000005 24.319676 6.096239 0.000092 -0.000028 -0.000100 0.000159 0.000063 1.749984 0.000007 0.000030 -0.000004 -0.000010 0.000000 0.699948 -1.166621 -0.466633 0.000006 -0.000005 -0.000015 -2.338570 -0.252539 -0.551485 25.875057 -2.123325 -1.291313 0.000012 -0.000033 -10.744960 6.561266 4.367666 -0.544535 -0.000014 0.000100 -10.930831 -0.000024 0.000000 -0.000000 0.000013 -4.087248 -1.487646 -0.000000 0.000002 -0.000003 2.338572 -0.252542 -0.551478 25.053621 0.101093 -1.254603 0.000002 -0.000028 -10.744914 5.823507 0.216271 -0.262599 -0.000010 0.000009 -10.930863 -0.000012 -0.000000 -0.000002 -0.000013 -4.087220 -1.487651 -0.000001 0.000001 -0.000001 
